<svg xmlns="http://www.w3.org/2000/svg" width="120" height="47" viewBox="0 0 120 47">
    <g fill="none" fill-rule="evenodd">
        <path stroke="#FFFFFE" d="M18.112 46.933V19.45m28.79 27.484V19.45m25.543 27.484V19.45"/>
        <path fill="#FFFFFE" d="M2.056 37.75c1.307 0 2.4-.187 3.378-1.122.88-.834 1.335-1.97 1.335-3.178 0-1.236-.468-2.43-1.392-3.25-.979-.876-2.057-1.049-3.32-1.049h-.865v8.599h.864zM0 28.03h2.015c1.603 0 2.908.215 4.171 1.308 1.22 1.064 1.774 2.516 1.774 4.127 0 1.581-.568 2.976-1.745 4.04-1.277 1.15-2.555 1.366-4.229 1.366H0V28.03zM32.408 30.33l-1.83 4.342h3.619l-1.789-4.342zm-2.313 5.464l-1.29 3.077h-1.306l4.938-11.36 4.81 11.36h-1.32l-1.262-3.077h-4.57zM60.12 38.871h-1.192v-9.72h-2.582v-1.122h6.385v1.122h-2.61v9.72M86.74 30.33l-1.831 4.342h3.62L86.74 30.33zm-2.313 5.464l-1.291 3.077h-1.307l4.94-11.36 4.81 11.36h-1.32l-1.263-3.077h-4.569zM106.356 19.323a84.67 84.67 0 0 0-9.796-6.136c4.876 8.1 8.5 17.658 10.232 28.258a91.835 91.835 0 0 0-.436-22.122"/>
        <path fill="#FFFFFE" d="M102.312 0c6.81 6.816 12.827 15.231 17.47 25.029-3.458 7.545-7.73 14.338-12.58 20.272 2.24-15.707.4-31.29-4.89-45.301"/>
    </g>
</svg>
