<svg xmlns="http://www.w3.org/2000/svg" width="98" height="70" viewBox="0 0 98 70">
    <g fill="#231F20" fill-rule="evenodd">
        <path d="M55.666 24.434l-15.86-.002v-5.754a1.527 1.527 0 0 1 1.546-1.525l12.765.003c.857-.01 1.556.678 1.543 1.522l.006 5.756zM23.248 10.902c-2.064-.001-3.727-1.644-3.725-3.676.002-2.023 1.665-3.663 3.718-3.668 2.064-.007 3.733 1.64 3.731 3.68.004 2.028-1.661 3.67-3.724 3.664zm58.814-3.194c-.395-.535-1.438-.848-2.01-.484-.864.583-1.105 2.164-4.36 2.16-.572.133-1.377 0-3.429 0-2.057 0-3.727-1.269-3.725-3.294-.006-2.032 1.667-3.3 3.725-3.295 2.05-.006 1.473-.013 1.886-.014v-.012c.022.01.035.02.048.02.776-.01 1.413-.633 1.42-1.403C75.613.695 75.082.115 74.4.02l.001-.016c-.65.005-1.106.003-1.415-.004-.341 0-.507 0-.579.003l-.03-.003h-.05c-.026-.003-.032 0-.064.004-9.56-.006-15.464 6.257-18.167 10.198l-12.686-.002C38.72 6.265 32.819-.001 23.248 0c-4.054.007-7.33 3.239-7.33 7.232 0 3.987 3.28 7.224 7.323 7.226 0 0 10.927.83 14.887 10.927h8.832l.236-.001 1.121-.001.225-.005 8.829.006c3.967-10.105 14.886-10.928 14.886-10.928 4.055.005 1.272.01 5.786 0 0 0 1.264.075 3.047-1.54.159-.125.295-.247.386-.354.909-.924 1.484-3.672.586-4.855z"/>
        <path d="M42.354 19.936c-.7.005-1.263.56-1.26 1.241-.003.673.562 1.23 1.25 1.234a1.24 1.24 0 0 0 1.26-1.24 1.264 1.264 0 0 0-1.25-1.235M53.132 19.939a1.24 1.24 0 0 0-1.255 1.238c-.007.679.554 1.236 1.251 1.245.69-.015 1.252-.57 1.257-1.247a1.256 1.256 0 0 0-1.253-1.236M12.956 41.876c.098-.71.147-2.118.147-4.223 0-2.104-.05-3.513-.147-4.223-.1-.71-.283-1.261-.554-1.653-.662-.978-1.695-1.469-3.095-1.469H6.47v14.689h2.838c1.4 0 2.433-.49 3.095-1.47.27-.39.455-.94.554-1.65zm6.595-4.223v2.662c0 .233-.007.63-.019 1.194s-.05.973-.11 1.23-.13.625-.202 1.1c-.074.48-.185.87-.332 1.177-.148.306-.313.655-.499 1.047a5.67 5.67 0 0 1-.66 1.082c-.26.33-.561.668-.905 1.01-1.72 1.714-4.077 2.57-7.076 2.57H.02V24.58h9.728c2.999 0 5.357.857 7.076 2.57.37.368.7.766.996 1.194.294.43.533.802.718 1.12.185.319.344.753.479 1.305.134.55.238.948.313 1.192.074.245.13.717.166 1.413.036.7.055 1.127.055 1.286V37.654zM32.449 41.472l-2.212-6.976-2.357 6.976h4.569zm9.655 9.253H35.36l-1.216-3.892h-8.07l-1.291 3.892H18.04l9.544-26.145h4.975l9.545 26.145zM57.397 30.308h-6.45v20.417H44.5V30.308H38.05v-5.302h19.347zM70.663 42.17c.147-.808.222-2.315.222-4.517 0-2.203-.075-3.715-.222-4.536-.147-.82-.393-1.45-.737-1.89-.59-.759-1.45-1.137-2.58-1.137-1.13 0-1.99.378-2.578 1.137-.345.44-.59 1.07-.738 1.89-.147.821-.22 2.333-.22 4.536 0 2.202.073 3.709.22 4.517.148.808.393 1.432.738 1.872.589.784 1.448 1.176 2.578 1.176s1.99-.392 2.58-1.176c.344-.44.59-1.064.737-1.872m6.67-6.923v4.812c0 .403-.043 1.094-.129 2.073-.085.981-.215 1.726-.386 2.24-.173.515-.437 1.115-.793 1.8a7.367 7.367 0 0 1-1.346 1.836c-1.966 1.96-4.41 2.937-7.333 2.937s-5.366-.978-7.333-2.937a7.385 7.385 0 0 1-1.345-1.835c-.356-.686-.62-1.286-.793-1.8-.17-.515-.3-1.26-.385-2.24-.088-.98-.13-1.671-.13-2.074v-4.812c0-.402.042-1.095.13-2.075.084-.978.214-1.725.385-2.239.173-.514.437-1.115.793-1.799a7.37 7.37 0 0 1 1.345-1.836c1.967-1.96 4.41-2.939 7.333-2.939 2.924 0 5.367.98 7.333 2.94.541.537.99 1.15 1.346 1.835.356.684.62 1.285.793 1.8.17.513.3 1.26.386 2.238.086.98.13 1.673.13 2.075M97.196 42.72c0 2.571-.964 4.585-2.893 6.042-1.929 1.456-4.342 2.183-7.24 2.183-2.163 0-4.05-.25-5.657-.752-1.61-.501-3.04-1.402-4.295-2.698l4.13-4.114c1.226 1.225 3.179 1.837 5.858 1.837 2.505 0 3.758-.783 3.758-2.35 0-.661-.172-1.175-.516-1.543-.368-.368-.945-.6-1.73-.698l-3.17-.44c-2.334-.343-4.092-1.115-5.271-2.314-1.203-1.224-1.805-2.974-1.805-5.251 0-2.423.867-4.407 2.599-5.948 1.73-1.543 4.057-2.315 6.983-2.315 3.807 0 6.755 1.04 8.844 3.122l-4.054 4.039a4.748 4.748 0 0 0-1.88-1.138c-.736-.245-1.266-.373-1.585-.385a44.379 44.379 0 0 0-1.51-.018c-1.031 0-1.819.244-2.358.734-.542.49-.811 1.052-.811 1.689 0 .464.17.869.515 1.211.419.418 1.02.674 1.807.772l3.168.44c2.31.319 4.03 1.04 5.16 2.167 1.302 1.274 1.953 3.183 1.953 5.728M9.175 63.938L7.766 59.88l-1.5 4.058h2.909zm6.145 5.379h-4.292l-.775-2.263H5.115l-.823 2.263H0l6.077-15.2h3.167l6.076 15.2zM23.616 65.57c.242-.263.363-.58.363-.95s-.121-.682-.363-.938c-.242-.258-.622-.386-1.138-.386h-2.77v2.67h2.77c.516 0 .896-.132 1.138-.396m-.224-5.988a1.21 1.21 0 0 0 .353-.875c0-.342-.118-.634-.353-.876-.235-.24-.61-.364-1.126-.364H19.71v2.477h2.557c.516 0 .89-.12 1.126-.362m4.693 5.252c0 1.41-.484 2.509-1.455 3.298-.97.791-2.22 1.184-3.754 1.184h-7.274v-15.2h6.922c1.705 0 3.018.4 3.941 1.196.925.797 1.386 1.864 1.386 3.202 0 1.253-.611 2.256-1.83 3.01.25.143.46.276.632.395.173.122.385.314.635.577.25.265.445.595.586.993.141.399.21.847.21 1.345M29.048 69.317h4.105v-15.2h-4.105zM46.01 69.317H34.654v-15.2h11.358v3.33h-7.25v2.54h6.193v3.331H38.76v2.67h7.25zM54.762 60.084c.329-.306.494-.665.494-1.079 0-.412-.165-.772-.494-1.078-.329-.306-.758-.46-1.29-.46h-2.325v3.075h2.325c.532 0 .961-.152 1.29-.458zm5.49 9.233h-4.763l-2.957-5.656h-1.385v5.656h-4.105v-15.2h6.617c1.767 0 3.159.48 4.175 1.44 1.018.96 1.527 2.111 1.527 3.448 0 .953-.267 1.768-.799 2.445a5.137 5.137 0 0 1-1.922 1.526l3.612 6.34zM71.796 57.447H67.69v11.87h-4.106v-11.87h-4.106v-3.33h12.318zM80.242 64.343c.093-.47.142-1.345.142-2.626 0-1.28-.049-2.16-.142-2.637-.093-.477-.25-.843-.468-1.098-.376-.443-.923-.663-1.643-.663s-1.266.22-1.642.663c-.22.255-.376.621-.469 1.098-.094.477-.141 1.356-.141 2.637 0 1.28.047 2.156.141 2.626.093.47.249.832.47 1.089.375.455.921.683 1.64.683.72 0 1.268-.228 1.644-.683.217-.257.375-.62.468-1.089m4.247-4.025V63.115c0 .235-.027.638-.083 1.207-.054.57-.137 1.004-.245 1.302-.11.298-.278.648-.505 1.047a4.383 4.383 0 0 1-.855 1.067c-1.253 1.139-2.81 1.707-4.67 1.707-1.862 0-3.418-.568-4.67-1.707a4.287 4.287 0 0 1-.855-1.067c-.228-.399-.395-.749-.506-1.047-.11-.298-.192-.732-.245-1.302a14.674 14.674 0 0 1-.083-1.207v-2.797c0-.234.028-.636.083-1.206.053-.57.136-1.002.245-1.303a7.37 7.37 0 0 1 .506-1.046c.224-.397.511-.753.856-1.067 1.251-1.139 2.807-1.708 4.669-1.708 1.86 0 3.417.569 4.67 1.708.343.314.628.67.855 1.067.227.399.395.749.505 1.046.108.3.19.734.245 1.303.056.57.083.972.083 1.206M97.135 64.664c0 1.493-.613 2.665-1.842 3.512-1.227.846-2.764 1.27-4.61 1.27-1.376 0-2.578-.146-3.6-.438a6.543 6.543 0 0 1-2.735-1.569l2.627-2.392c.783.712 2.025 1.068 3.731 1.068 1.596 0 2.394-.454 2.394-1.367 0-.383-.11-.682-.329-.896-.235-.214-.602-.349-1.103-.406l-2.018-.257c-1.486-.198-2.604-.647-3.355-1.343-.766-.713-1.15-1.73-1.15-3.054 0-1.41.553-2.562 1.655-3.46 1.103-.895 2.585-1.344 4.447-1.344 2.424 0 4.3.605 5.63 1.815l-2.58 2.348a3.085 3.085 0 0 0-1.197-.661c-.47-.143-.805-.218-1.01-.224a28.326 28.326 0 0 0-.961-.011c-.657 0-1.158.142-1.501.427-.344.284-.517.613-.517.982 0 .27.11.505.328.704.267.243.65.392 1.15.448l2.018.257c1.47.186 2.566.605 3.285 1.26.829.74 1.243 1.85 1.243 3.33"/>
    </g>
</svg>
