<?xml version="1.0" encoding="utf-8"?>
<svg version="1.1" id="Capa_1" x="0px" y="0px" viewBox="0 0 12 12" style="enable-background:new 0 0 339.75 339.75;" xmlns="http://www.w3.org/2000/svg">
  <g transform="matrix(0.22222, 0, 0, 0.22222, 0.444611, 0.444556)">
    <path style="fill:#090509;" d="M 31.097 24.983 L 46.207 40.082 C 47.93 41.805 47.93 44.453 46.207 46.175 C 45.411 46.97 44.22 47.5 43.16 47.5 C 42.099 47.5 40.905 46.97 40.11 46.175 L 25 31.076 L 9.89 46.175 C 9.094 46.97 7.901 47.5 6.841 47.5 C 5.78 47.5 4.588 46.97 3.792 46.175 C 2.069 44.453 2.069 41.805 3.792 40.082 L 18.902 24.983 L 3.792 9.885 C 2.069 8.162 2.069 5.514 3.792 3.791 C 5.516 2.069 8.166 2.069 9.89 3.791 L 25 18.89 L 40.11 3.791 C 41.834 2.069 44.484 2.069 46.207 3.791 C 47.93 5.514 47.93 8.162 46.207 9.885 L 31.097 24.983 Z"/>
  </g>
</svg>